<?xml version="1.0" encoding="utf-8"?>
<!-- Generator: Adobe Illustrator 26.0.1, SVG Export Plug-In . SVG Version: 6.00 Build 0)  -->
<svg version="1.1" id="Layer_1" xmlns="http://www.w3.org/2000/svg" xmlns:xlink="http://www.w3.org/1999/xlink" x="0px" y="0px"
	 viewBox="0 0 240 56" style="enable-background:new 0 0 240 56;" xml:space="preserve">
<style type="text/css">
	.st0{fill:#00AAFF;}
	.st1{fill:#00D3DD;}
	.st2{fill:#003DFF;}
	.st3{fill:#0C0C0C;}
</style>
<g>
	<polygon class="st0" points="11.87,11.87 11.87,0 56,0 56,44.13 44.13,44.13 44.13,11.87 	"/>
	<polygon class="st1" points="11.87,11.87 11.87,44.13 44.13,44.13 44.13,56 0,56 0,11.87 	"/>
	<rect x="11.87" y="11.87" class="st2" width="32.26" height="32.26"/>
</g>
<g>
	<path class="st3" d="M167.22,14.77c-2.1-1.49-4.66-2.42-7.61-2.59c-0.03,0-0.05,0-0.08-0.01c-0.07,0-0.14-0.01-0.21-0.01
		c-0.23-0.01-0.46-0.02-0.69-0.02c-0.33,0-0.65,0.02-0.98,0.04c-7.43,0.42-12.41,5.67-13.65,12.59c-0.18,1.02-0.28,2.07-0.3,3.15
		c0,0.09-0.01,0.17-0.01,0.26c0,0.01,0,0.01,0,0.02s0,0.01,0,0.02v0c0,0.26,0.01,0.52,0.02,0.78c0,0.01,0,0.02,0,0.03
		c0,0.01,0,0.02,0,0.02c0.02,0.44,0.05,0.88,0.1,1.31c0.85,7.86,6.36,13.93,14.81,13.93c3.36,0,6.26-0.96,8.59-2.62v1.86h8V12.88h-8
		V14.77z M159.5,36.87c-4.45,0-8.07-3.24-8.07-8.72c0-5.48,3.75-8.6,8.07-8.6c4.32,0,7.68,3.05,7.68,8.53
		C167.19,33.63,163.82,36.87,159.5,36.87z"/>
	<path class="st3" d="M185.94,28.21c0,5.55,3.62,8.66,7.85,8.66c4.24,0,6.36-2.8,7.04-5.17l7.29,2.43
		c-1.37,5.11-6.17,10.35-14.34,10.35c-9.04,0-16.14-6.86-16.14-16.27c0-9.47,6.98-16.27,15.89-16.27c8.35,0,13.09,5.17,14.4,10.35
		l-7.42,2.49c-0.75-2.56-2.68-5.17-6.79-5.17C189.5,19.61,185.94,22.66,185.94,28.21z"/>
	<path class="st3" d="M239.56,34.97c-1.56,5.3-6.42,9.72-13.96,9.72c-8.41,0-15.83-6.05-15.83-16.39c0-9.78,7.23-16.14,15.08-16.14
		c9.47,0,15.15,6.05,15.15,15.89c0,1.18-0.13,2.43-0.13,2.56h-21.84c0.19,4.05,3.52,6.91,7.63,6.91c3.86,0,5.98-1.86,6.98-4.6
		L239.56,34.97z M231.83,24.94c-0.12-3.05-2.12-5.97-6.85-5.97c-4.3,0-6.57,3.17-6.76,5.97H231.83z"/>
	<path class="st3" d="M94.73,24.64c-4.42-0.94-6.86-1.46-6.86-3.3c0-1.62,1.59-2.54,4.36-2.54c2.88,0,4.79,0.92,6.01,2.89l0.05,0.09
		l7.49-2.99l-0.09-0.12c-3.21-4.56-7.36-6.59-13.47-6.59c-4.15-0.02-7.79,1.26-10.21,3.63c-1.74,1.7-2.7,3.87-2.7,6.1
		c0,6.42,5.54,8.1,11.21,9.27l0.74,0.15c3.62,0.72,6.48,1.28,6.48,3.26c0,1.68-1.99,2.85-4.84,2.85c-3.04,0-5.81-1.45-7.04-3.7
		l-0.05-0.09l-7.88,3.04L78,36.69c2.58,5.1,7.5,7.69,14.63,7.69c0.05,0,0.1,0,0.14,0c5.58,0,8.83-2.03,10.57-3.74
		c1.84-1.8,2.89-4.17,2.89-6.5C106.23,27.79,100.7,25.82,94.73,24.64z"/>
	<path class="st3" d="M140.94,24.76c-0.78-4.22-4-12.36-14.51-12.61c-3.81-0.01-6.57,1.11-8.66,2.59v-1.87h-8.04v42.47h8.16V41.81
		v-0.06c2.3,1.59,5.14,2.58,8.43,2.52c9.42-0.17,13.52-6.85,14.58-12.28C141.48,29.04,141.2,26.17,140.94,24.76z M125.45,36.85
		c-4.32,0-7.68-3.24-7.68-8.78c0-5.48,3.37-8.53,7.68-8.53c4.32,0,8.07,3.11,8.07,8.6C133.52,33.62,129.89,36.85,125.45,36.85z"/>
</g>
</svg>
